<svg width="157" height="182" viewBox="0 0 157 182" fill="none" xmlns="http://www.w3.org/2000/svg">
<path d="M0 182L52.0183 0H76.2688L24.2505 182H0Z" fill="#40FB50"/>
<path d="M114.276 162.199C105.013 162.199 96.9623 160.722 90.1229 157.768C83.2836 154.815 77.8902 150.695 73.9625 145.41C70.0152 140.124 67.7093 134.042 67.0254 127.163H91.9012C92.5851 130.058 93.8357 132.701 95.6335 135.091C97.4313 137.501 99.8739 139.386 103.001 140.765C106.108 142.145 109.801 142.825 114.08 142.825C118.36 142.825 121.604 142.242 124.242 141.076C126.86 139.91 128.795 138.356 130.045 136.432C131.296 134.508 131.902 132.448 131.902 130.253C131.902 126.949 131.003 124.423 129.205 122.635C127.407 120.847 124.808 119.448 121.428 118.419C118.047 117.389 114.002 116.398 109.293 115.426C104.31 114.474 99.5222 113.269 94.891 111.812C90.2597 110.374 86.117 108.547 82.4628 106.351C78.8087 104.155 75.897 101.338 73.7671 97.8983C71.6175 94.4589 70.5623 90.281 70.5623 85.3258C70.5623 79.2825 72.1842 73.861 75.4281 69.0418C78.6719 64.2421 83.3813 60.414 89.5172 57.5964C95.6726 54.7787 103.02 53.3796 111.599 53.3796C123.753 53.3796 133.465 56.1584 140.715 61.716C147.965 67.2735 152.224 75.0852 153.456 85.1121H129.83C129.146 81.2645 127.212 78.272 124.027 76.1539C120.842 74.0358 116.64 72.9671 111.384 72.9671C106.127 72.9671 101.887 73.9581 99.0532 75.9596C96.2198 77.9611 94.8128 80.6039 94.8128 83.8879C94.8128 86.0837 95.6726 88.0074 97.4118 89.6592C99.1314 91.3109 101.652 92.7294 104.974 93.8759C108.296 95.0418 112.361 96.1689 117.207 97.2765C124.945 98.7922 131.785 100.58 137.725 102.64C143.665 104.7 148.355 107.731 151.814 111.714C155.273 115.698 156.992 121.333 156.992 128.62C157.129 135.208 155.429 141.057 151.912 146.148C148.394 151.239 143.451 155.184 137.1 158.001C130.749 160.819 123.147 162.218 114.295 162.218L114.276 162.199Z" fill="#40FB50"/>
</svg>
